<?xml version="1.0" encoding="utf-8"?>
<!-- Generator: Adobe Illustrator 24.1.2, SVG Export Plug-In . SVG Version: 6.00 Build 0)  -->
<svg version="1.1" id="Camada_1" xmlns="http://www.w3.org/2000/svg" xmlns:xlink="http://www.w3.org/1999/xlink" x="0px" y="0px"
	 viewBox="0 0 2427.8 1327.3" style="enable-background:new 0 0 2427.8 1327.3;" xml:space="preserve">
<style type="text/css">
	.st0{fill-rule:evenodd;clip-rule:evenodd;fill:url(#SVGID_1_);}
	.st1{fill:url(#SVGID_2_);}
	.st2{fill-rule:evenodd;clip-rule:evenodd;fill:url(#SVGID_3_);}
	.st3{fill:url(#SVGID_4_);}
	.st4{fill-rule:evenodd;clip-rule:evenodd;fill:url(#SVGID_5_);}
</style>
<linearGradient id="SVGID_1_" gradientUnits="userSpaceOnUse" x1="259.0711" y1="1201.984" x2="259.0711" y2="1200.984" gradientTransform="matrix(268.1381 11.0081 12.2479 -298.3356 -82361.6406 355909.5313)">
	<stop  offset="0" style="stop-color:#2DB7FF;stop-opacity:0"/>
	<stop  offset="1" style="stop-color:#2DB7FF;stop-opacity:0.1"/>
</linearGradient>
<path class="st0" d="M1847.3,173.1l90.9,57.9c12.3,7.8,19.5,21.7,18.9,36.2l-4.5,108.4c-0.6,14.6-8.9,27.8-21.8,34.6l-95.3,50.2
	c-13,6.8-28.7,6.2-41.1-1.7l-90.9-57.9c-12.3-7.8-19.5-21.6-18.9-36.2l4.5-108.4c0.6-14.6,8.9-27.8,21.8-34.6l95.3-50.2
	C1819.2,164.6,1834.9,165.3,1847.3,173.1z"/>
<linearGradient id="SVGID_2_" gradientUnits="userSpaceOnUse" x1="282.7253" y1="1002.1752" x2="529.0898" y2="1527.5201" gradientTransform="matrix(-0.5399 -0.8418 0.8418 -0.5399 -400.937 1803.9093)">
	<stop  offset="0" style="stop-color:#2DB7FF;stop-opacity:0"/>
	<stop  offset="0.521" style="stop-color:#2DB7FF"/>
	<stop  offset="1" style="stop-color:#2DB7FF"/>
</linearGradient>
<path class="st1" d="M427.7,798.4c10,6.1,18.3,14.8,23.9,25.1l97.7,179.5c11.4,20.9,10.8,46.3-1.6,66.6l-106.9,175.6
	c-12.4,20.3-34.6,32.5-58.4,32l-204.3-4.3c-23.9-0.5-45.7-13.8-57.2-34.8l-97.7-179.5c-11.4-20.9-10.8-46.3,1.6-66.6l106.9-175.6
	c12.4-20.3,34.6-32.5,58.4-32l204.3,4.3C406.2,788.9,417.7,792.3,427.7,798.4z M152.9,1250c9.5,5.8,20.3,8.9,31.4,9.2l192.8,4.1
	c22.4,0.4,43.4-11.1,55.1-30.2L533,1067.4c11.6-19.2,12.2-43.1,1.5-62.8l-92.2-169.4c-10.8-19.8-31.4-32.3-53.9-32.8l-192.8-4.1
	c-22.4-0.4-43.4,11.1-55.1,30.2L39.6,994.1c-11.6,19.2-12.2,43.1-1.5,62.8l92.2,169.4C135.6,1236.1,143.4,1244.2,152.9,1250
	L152.9,1250z"/>
<linearGradient id="SVGID_3_" gradientUnits="userSpaceOnUse" x1="259.2314" y1="1200.7256" x2="257.7658" y2="1198.0211" gradientTransform="matrix(141.6652 -227.9259 -253.5947 -157.6194 269523.9063 248903.125)">
	<stop  offset="0" style="stop-color:#2DB7FF;stop-opacity:0.1"/>
	<stop  offset="0.1357" style="stop-color:#5EC8FF;stop-opacity:8.642769e-02"/>
	<stop  offset="0.2872" style="stop-color:#8DD8FF;stop-opacity:7.128317e-02"/>
	<stop  offset="0.4385" style="stop-color:#B4E5FF;stop-opacity:5.614699e-02"/>
	<stop  offset="0.5871" style="stop-color:#D3F0FF;stop-opacity:4.129095e-02"/>
	<stop  offset="0.732" style="stop-color:#E9F7FF;stop-opacity:2.680410e-02"/>
	<stop  offset="0.8715" style="stop-color:#F6FBFF;stop-opacity:1.284505e-02"/>
	<stop  offset="1" style="stop-color:#FAFDFF;stop-opacity:0"/>
</linearGradient>
<path class="st2" d="M1622.3,632l313.9-167c42.6-22.6,93.9-20.9,134.9,4.5l304.1,189c40.9,25.4,65.2,70.8,63.7,118.9l-10.8,355.4
	c-1.5,48.5-28.8,92.5-71.6,115.2l-313.9,167c-42.5,22.6-93.9,20.9-134.9-4.5l-304.1-189c-40.9-25.4-65.2-70.8-63.8-118.9l10.8-355.4
	C1552.2,698.8,1579.5,654.8,1622.3,632z"/>
<linearGradient id="SVGID_4_" gradientUnits="userSpaceOnUse" x1="914.8882" y1="1596.0482" x2="1161.2524" y2="2121.3933" gradientTransform="matrix(0.1233 0.9924 -0.9924 0.1233 3715.5295 -864.7951)">
	<stop  offset="0" style="stop-color:#2DB7FF;stop-opacity:0"/>
	<stop  offset="0.521" style="stop-color:#2DB7FF"/>
	<stop  offset="1" style="stop-color:#2DB7FF"/>
</linearGradient>
<path class="st3" d="M2022.5,384.8c-6.4-9.8-10.1-21.2-10.7-33l-10.6-204.1c-1.2-23.8,10.3-46.4,30.2-59.4l172.2-112.2
	c19.9-13,45.3-14.4,66.5-3.6l182.4,92.2c21.4,10.8,35.3,32.2,36.5,56.1l10.6,204.1c1.2,23.8-10.3,46.4-30.2,59.4l-172.2,112.2
	c-19.9,13-45.3,14.4-66.5,3.6l-182.4-92.2C2037.8,402.6,2028.9,394.6,2022.5,384.8z M2465.4,96.1c-6.1-9.3-14.5-16.8-24.4-21.8
	l-172.1-87c-20-10.1-43.9-8.8-62.8,3.4L2043.7,96.7c-18.8,12.3-29.6,33.6-28.5,56l10,192.6c1.2,22.5,14.3,42.7,34.5,52.9l172.1,87
	c20,10.1,43.9,8.8,62.8-3.4l162.5-105.9c18.8-12.3,29.6-33.6,28.5-56l-10-192.6C2475,116.2,2471.5,105.4,2465.4,96.1L2465.4,96.1z"
	/>
<linearGradient id="SVGID_5_" gradientUnits="userSpaceOnUse" x1="257.8304" y1="1206.0476" x2="256.3648" y2="1203.3431" gradientTransform="matrix(-59.2581 261.7398 291.2167 65.9317 -335568.5 -146495.0469)">
	<stop  offset="0" style="stop-color:#2DB7FF;stop-opacity:0.1"/>
	<stop  offset="0.1357" style="stop-color:#5EC8FF;stop-opacity:8.642769e-02"/>
	<stop  offset="0.2872" style="stop-color:#8DD8FF;stop-opacity:7.128317e-02"/>
	<stop  offset="0.4385" style="stop-color:#B4E5FF;stop-opacity:5.614699e-02"/>
	<stop  offset="0.5871" style="stop-color:#D3F0FF;stop-opacity:4.129095e-02"/>
	<stop  offset="0.732" style="stop-color:#E9F7FF;stop-opacity:2.680410e-02"/>
	<stop  offset="0.8715" style="stop-color:#F6FBFF;stop-opacity:1.284505e-02"/>
	<stop  offset="1" style="stop-color:#FAFDFF;stop-opacity:0"/>
</linearGradient>
<path class="st4" d="M471.5,396.2l-242,260.6c-32.8,35.3-81.9,50.5-128.9,39.9l-349.2-79.1c-47-10.7-84.8-45.5-99.2-91.5
	l-106.1-339.4c-14.5-46.3-3-96.8,30-132.3l242-260.6c32.8-35.3,81.9-50.5,128.9-39.9l349.2,79.1c47,10.6,84.8,45.5,99.2,91.5
	l106.1,339.4C516,310.1,504.5,360.6,471.5,396.2z"/>
</svg>
