<svg id="Camada_1" data-name="Camada 1" xmlns="http://www.w3.org/2000/svg" viewBox="0 0 1618.52 324"><defs><style>.cls-1{fill:#f4f4f6;}.cls-2{fill:#882cf2;}</style></defs><path class="cls-1" d="M155.43,392.44a103.91,103.91,0,0,1-18.31-4.64,76.78,76.78,0,0,1-16.85-8.3,62.22,62.22,0,0,1-14.16-12.94,155.06,155.06,0,0,1-8.79-16.11,71.67,71.67,0,0,1-5.61-17.33A67.82,67.82,0,0,1,91,313.83q5.35-14.16,12.2-16.85t10.75-2.68h7.81q13.19,3.92,16.11,9t4.4,16.85q1.45,12.69,6.83,16.6l7.33,3.9H372.23a57.53,57.53,0,0,0,8.54-2.93,47.27,47.27,0,0,0,8.55-4.63,39.46,39.46,0,0,0,7.32-6.6,26.14,26.14,0,0,0,4.15-7.81,30.4,30.4,0,0,0,1.22-9,25.62,25.62,0,0,1,1.47-9,43,43,0,0,1-2.2-9,17.52,17.52,0,0,0-3.17-8.3,78.74,78.74,0,0,0-6.35-7.08,28,28,0,0,0-5.86-4.39,24.7,24.7,0,0,0-6.59-2.69,56.14,56.14,0,0,1-7.08-2.2H171.05a115.52,115.52,0,0,1-21.72-4.15,95.21,95.21,0,0,1-20.51-8.54,79.66,79.66,0,0,1-17.34-13.19A101.71,101.71,0,0,1,97.81,221.3,58.22,58.22,0,0,1,91,198.59a150.65,150.65,0,0,1,0-24.41,69.22,69.22,0,0,1,4.15-17.58,61.78,61.78,0,0,1,8.54-15.38,89.53,89.53,0,0,1,12.7-13.43q7.8-5.37,15.62-9.76a61.4,61.4,0,0,1,16.12-6.35q8.29-2,17.57-4.88H391.76a92.78,92.78,0,0,1,16.11,4.64,80.75,80.75,0,0,1,15.38,7.81,85.41,85.41,0,0,1,13.43,11,70.28,70.28,0,0,1,10.74,16.12,78.65,78.65,0,0,1,5.86,18.06,65.08,65.08,0,0,1,1.22,18.31q-.74,8.55-10,15.87a17.39,17.39,0,0,1-6.35,3.91,23.34,23.34,0,0,1-8.3,1.46h-8.3q-9.27-3.41-13.67-8.78A17.53,17.53,0,0,1,403.48,184,39.72,39.72,0,0,0,402,173c-1-3.42-1.71-6.42-2.2-9S394,159.21,384,157.58H174.47q-4.89,1-10,2.2a36.18,36.18,0,0,0-9.76,3.9,41.2,41.2,0,0,0-8.55,6.59,11.85,11.85,0,0,0-3.17,6.35q-.73,3.91-1.22,7.08a46.29,46.29,0,0,0-.49,7.08l6.35,14.16c2.6,1.95,5,3.59,7.08,4.88a30.49,30.49,0,0,0,7.08,3.18c2.6.81,5.2,1.71,7.81,2.68h200.2a101.66,101.66,0,0,1,24.41,4.89,94.39,94.39,0,0,1,41.5,27.34,90.66,90.66,0,0,1,12.21,21.24A75.56,75.56,0,0,1,453,293.08q.73,12.94.73,25.63a205.31,205.31,0,0,1-5.86,20,64.75,64.75,0,0,1-9.77,18.07,102.72,102.72,0,0,1-15.62,16.11,52.18,52.18,0,0,1-16.6,10.5A116.6,116.6,0,0,1,387.61,389q-9,2-19.29,3.42Z" transform="translate(-90.48 -88)"/><path class="cls-1" d="M504.55,392.44q-18.56-.49-24.9-19.53V126.33q4.39-13.67,11.72-16.6t11.23-2.93h7.81q18.06,5.37,19.53,19.53V372.91Q524.57,391.48,504.55,392.44Z" transform="translate(-90.48 -88)"/><path class="cls-1" d="M733.55,392.44a35.27,35.27,0,0,0-7.08-1.95q-3.18-.5-6.34-3.91t-5.62-5.86l-3.9-7.81V157.58H573.4l-14.16-9.28a15,15,0,0,1-3.66-6.35,25.81,25.81,0,0,1-1.22-7.81v-7.81q4.88-17.08,19-19.53H897.62q15.12,5.85,17.33,12.69a37.6,37.6,0,0,1,2.2,10.74v7.82a29.37,29.37,0,0,1-19.53,19.53H760.9V371.93Q756.51,392,733.55,392.44Z" transform="translate(-90.48 -88)"/><path class="cls-1" d="M955.72,157.58l-14.16-9.28A15.06,15.06,0,0,1,937.9,142a25.81,25.81,0,0,1-1.22-7.81v-7.81q4.88-17.08,19-19.53h324.22q12.19,5.37,14.65,8.54a22.7,22.7,0,0,1,3.66,7.08,26.22,26.22,0,0,1,1.22,7.81v7.82a29.35,29.35,0,0,1-19.53,19.53Zm3.91,234.86a16.13,16.13,0,0,0-6.35-1.95,10.91,10.91,0,0,1-6.59-3.18l-5.13-5.12-4.88-9.28V234.73q5.37-19,23-19h285.64a34.12,34.12,0,0,0,6.35,1.71,13.2,13.2,0,0,1,6.59,3.18,53.55,53.55,0,0,1,5.13,5.37,11.49,11.49,0,0,1,3.17,5.61,69,69,0,0,1,1.22,7.08,64.14,64.14,0,0,1,.49,7.82q-5.37,16.6-22,20.5H987v73.73h292q10.74,3.42,12.94,6.84a77.24,77.24,0,0,1,4.15,7.32,29.89,29.89,0,0,1,2.69,7.82,50.94,50.94,0,0,1,.73,9.27Q1294.1,389,1276,392.44Z" transform="translate(-90.48 -88)"/><path class="cls-2" d="M1684.13,88H1338.88A24.88,24.88,0,0,0,1314,112.88V387.13A24.88,24.88,0,0,0,1338.88,412h345.25A24.88,24.88,0,0,0,1709,387.13V112.88A24.88,24.88,0,0,0,1684.13,88Zm8.4,249.45q-.73,17.34-.73,34.42-4.4,20-27.35,20.51-19.53-4.87-22.46-22l-.49-33.69q1.95-37.59-10.25-46.39a28.1,28.1,0,0,0-6.1-3.91,24.26,24.26,0,0,0-7.08-1.95,16,16,0,0,1-6.35-2H1379.3v90.33c-1,1.95-2.12,4-3.42,6.1a34.62,34.62,0,0,1-5.13,6.35,31.25,31.25,0,0,1-5.61,4.64L1352,392.38a16.24,16.24,0,0,0-6.34-1.95,11,11,0,0,1-6.6-3.18q-2.68-2.67-5.12-5.12l-4.89-9.28V251.76q5.37-20.52,24.42-21h242.67q20.52-6.34,22-10.25a61.29,61.29,0,0,1,3.9-8.3,18.36,18.36,0,0,0,2.44-9,33,33,0,0,1,1.47-9.52,62.33,62.33,0,0,1-2-10,22.59,22.59,0,0,0-2.45-8.3,33,33,0,0,0-5.85-7.57q-3.92-2.93-7.09-4.88a29,29,0,0,0-7.81-3.17c-3.1-.81-5.94-1.55-8.54-2.2H1348.05l-14.16-9.28a15,15,0,0,1-3.67-6.35,26.12,26.12,0,0,1-1.22-7.81v-7.81q5.87-16.11,19-19.53h252q10.26,2.92,20.75,6.1a76.51,76.51,0,0,1,19.53,9,73,73,0,0,1,16.36,14.65,116.81,116.81,0,0,1,12.94,21.24,76.41,76.41,0,0,1,6.59,23.93,116.39,116.39,0,0,1,0,26.12c-1,5.21-2,10.18-3.17,14.89a46.33,46.33,0,0,1-5.62,13.43,120.3,120.3,0,0,0-6.83,12.7,74.35,74.35,0,0,1,7.81,6.83A45.07,45.07,0,0,1,1675,264a44.33,44.33,0,0,0,6.59,8.3,97,97,0,0,1,9.77,31.74A205.71,205.71,0,0,1,1692.53,337.45Z" transform="translate(-90.48 -88)"/></svg>